<svg width="41" height="37" viewBox="0 0 41 37" fill="none" xmlns="http://www.w3.org/2000/svg">
<path d="M39.5156 7.43441C38.8873 5.97958 37.9813 4.66123 36.8484 3.55316C35.7147 2.44178 34.3779 1.55858 32.9109 0.951596C31.3897 0.319688 29.7582 -0.00375837 28.1109 3.29478e-05C25.8 3.29478e-05 23.5453 0.632845 21.5859 1.82816C21.1172 2.1141 20.6719 2.42816 20.25 2.77035C19.8281 2.42816 19.3828 2.1141 18.9141 1.82816C16.9547 0.632845 14.7 3.29478e-05 12.3891 3.29478e-05C10.725 3.29478e-05 9.1125 0.318783 7.58906 0.951596C6.11719 1.56097 4.79062 2.43753 3.65156 3.55316C2.51717 4.65998 1.61099 5.97864 0.984375 7.43441C0.332813 8.94847 0 10.5563 0 12.211C0 13.7719 0.31875 15.3985 0.951563 17.0532C1.48125 18.436 2.24062 19.8703 3.21094 21.3188C4.74844 23.611 6.8625 26.0016 9.4875 28.425C13.8375 32.4422 18.1453 35.2172 18.3281 35.3297L19.4391 36.0422C19.9313 36.3563 20.5641 36.3563 21.0563 36.0422L22.1672 35.3297C22.35 35.2125 26.6531 32.4422 31.0078 28.425C33.6328 26.0016 35.7469 23.611 37.2844 21.3188C38.2547 19.8703 39.0187 18.436 39.5437 17.0532C40.1766 15.3985 40.4953 13.7719 40.4953 12.211C40.5 10.5563 40.1672 8.94847 39.5156 7.43441Z" fill="#EB2393"/>
<path d="M11.9289 18.648H17.0049V20.952H11.9289V18.648ZM10.9689 21.744H17.9649V17.868H10.9689V21.744ZM12.0369 15.996C10.9689 15.996 10.2009 15.288 10.2009 14.268C10.2009 13.272 10.9689 12.576 12.0369 12.576C13.0929 12.576 13.8609 13.272 13.8609 14.268C13.8609 15.288 13.0929 15.996 12.0369 15.996ZM16.9689 11.136V13.836H14.7609C14.5569 12.588 13.4769 11.748 12.0369 11.748C10.4289 11.748 9.26494 12.78 9.26494 14.268C9.26494 15.792 10.4289 16.824 12.0369 16.824C13.5009 16.824 14.5929 15.96 14.7729 14.652H16.9689V17.316H17.9649V11.136H16.9689ZM21.528 12.996H24.54V18.36H21.528V12.996ZM20.568 19.152H25.5V12.204H20.568V19.152ZM30.192 15.42H28.416V11.136H27.432V21.888H28.416V16.248H30.192V15.42Z" fill="white"/>
</svg>
