<svg width="41" height="37" viewBox="0 0 41 37" fill="none" xmlns="http://www.w3.org/2000/svg">
<path d="M39.5156 7.43441C38.8873 5.97958 37.9813 4.66123 36.8484 3.55316C35.7147 2.44178 34.378 1.55858 32.9109 0.951596C31.3897 0.319688 29.7582 -0.00375837 28.1109 3.29478e-05C25.8 3.29478e-05 23.5453 0.632845 21.5859 1.82816C21.1172 2.1141 20.6719 2.42816 20.25 2.77035C19.8281 2.42816 19.3828 2.1141 18.9141 1.82816C16.9547 0.632845 14.7 3.29478e-05 12.3891 3.29478e-05C10.725 3.29478e-05 9.1125 0.318783 7.58906 0.951596C6.11719 1.56097 4.79062 2.43753 3.65156 3.55316C2.51717 4.65998 1.61099 5.97864 0.984375 7.43441C0.332813 8.94847 0 10.5563 0 12.211C0 13.7719 0.31875 15.3985 0.951563 17.0532C1.48125 18.436 2.24062 19.8703 3.21094 21.3188C4.74844 23.611 6.8625 26.0016 9.4875 28.425C13.8375 32.4422 18.1453 35.2172 18.3281 35.3297L19.4391 36.0422C19.9313 36.3563 20.5641 36.3563 21.0563 36.0422L22.1672 35.3297C22.35 35.2125 26.6531 32.4422 31.0078 28.425C33.6328 26.0016 35.7469 23.611 37.2844 21.3188C38.2547 19.8703 39.0187 18.436 39.5437 17.0532C40.1766 15.3985 40.4953 13.7719 40.4953 12.211C40.5 10.5563 40.1672 8.94847 39.5156 7.43441V7.43441Z" fill="#46377B"/>
<path d="M11.9649 18.588C10.9209 18.588 10.1889 17.46 10.1889 15.708C10.1889 13.968 10.9209 12.84 11.9649 12.84C12.9969 12.84 13.7289 13.968 13.7289 15.708C13.7289 17.46 12.9969 18.588 11.9649 18.588ZM11.9649 11.952C10.3809 11.952 9.25294 13.416 9.25294 15.708C9.25294 18 10.3809 19.464 11.9649 19.464C13.5489 19.464 14.6649 18 14.6649 15.708C14.6649 13.416 13.5489 11.952 11.9649 11.952ZM19.1529 15.42H17.3769V11.136H16.3929V21.888H17.3769V16.248H19.1529V15.42ZM22.5 18.48H21.18V15.684H22.5V18.48ZM22.5 14.892H21.18V12.132H20.34V19.284H23.316V12.132H22.5V14.892ZM25.992 18.48H24.72V15.684H25.992V18.48ZM25.992 14.892H24.72V12.132H23.892V19.284H26.82V12.132H25.992V14.892ZM30.144 15.324H28.704V11.124H27.732V21.888H28.704V16.152H30.144V15.324Z" fill="white"/>
</svg>
